<svg width="1537" height="500" viewBox="0 0 1537 500" fill="none" xmlns="http://www.w3.org/2000/svg">
<path d="M1429.79 400.231V496.745H1391V276.857H1428.9V359.942H1430.97C1434.8 350.596 1440.75 343.217 1448.82 337.806C1456.88 332.395 1467.25 329.689 1479.94 329.689C1491.34 329.689 1501.27 332.1 1509.73 336.921C1518.29 341.741 1524.92 348.776 1529.64 358.024C1534.36 367.272 1536.72 378.537 1536.72 391.819V496.745H1497.78V397.869C1497.78 386.654 1494.93 377.996 1489.23 371.896C1483.53 365.698 1475.56 362.599 1465.33 362.599C1458.45 362.599 1452.31 364.075 1446.9 367.026C1441.59 369.978 1437.41 374.257 1434.36 379.865C1431.31 385.375 1429.79 392.163 1429.79 400.231Z" fill="currentColor"/>
<path d="M1299.41 500.001C1282.99 500.001 1268.88 496.41 1257.08 489.228C1245.28 481.948 1236.23 471.913 1229.94 459.123C1223.64 446.333 1220.5 431.625 1220.5 414.998C1220.5 398.174 1223.69 383.368 1230.09 370.578C1236.48 357.788 1245.57 347.802 1257.37 340.62C1269.17 333.339 1283.08 329.699 1299.11 329.699C1312.58 329.699 1324.48 332.159 1334.81 337.078C1345.13 341.997 1353.34 348.933 1359.44 357.886C1365.63 366.741 1369.17 377.12 1370.06 389.025H1332.89C1331.9 383.712 1329.99 378.94 1327.14 374.71C1324.28 370.479 1320.55 367.134 1315.93 364.675C1311.4 362.215 1306 360.985 1299.7 360.985C1291.74 360.985 1284.76 363.15 1278.76 367.479C1272.86 371.709 1268.24 377.809 1264.89 385.778C1261.55 393.747 1259.88 403.29 1259.88 414.408C1259.88 425.623 1261.5 435.314 1264.75 443.48C1267.99 451.547 1272.61 457.795 1278.61 462.222C1284.61 466.551 1291.64 468.715 1299.7 468.715C1308.26 468.715 1315.48 466.207 1321.38 461.189C1327.38 456.171 1331.22 449.235 1332.89 440.381H1370.06C1369.17 452.088 1365.73 462.419 1359.73 471.372C1353.73 480.325 1345.62 487.359 1335.4 492.475C1325.17 497.493 1313.17 500.001 1299.41 500.001Z" fill="currentColor"/>
<path d="M1160.02 496.743V331.754H1198.81V496.743H1160.02ZM1179.49 308.585C1173.29 308.585 1167.98 306.519 1163.56 302.386C1159.13 298.254 1156.92 293.286 1156.92 287.481C1156.92 281.578 1159.13 276.561 1163.56 272.429C1167.98 268.297 1173.29 266.23 1179.49 266.23C1185.58 266.23 1190.84 268.297 1195.27 272.429C1199.69 276.561 1201.91 281.529 1201.91 287.334C1201.91 293.237 1199.69 298.254 1195.27 302.386C1190.84 306.519 1185.58 308.585 1179.49 308.585Z" fill="currentColor"/>
<path d="M1051.46 496.721V331.731H1089.07V359.475H1090.84C1093.79 349.834 1098.95 342.455 1106.33 337.339C1113.7 332.125 1122.11 329.518 1131.55 329.518C1133.61 329.518 1135.97 329.616 1138.63 329.813C1141.38 330.009 1143.64 330.255 1145.41 330.551V366.264C1143.74 365.674 1141.14 365.182 1137.6 364.788C1134.06 364.395 1130.66 364.198 1127.42 364.198C1120.24 364.198 1113.85 365.723 1108.24 368.773C1102.64 371.823 1098.21 376.004 1094.97 381.317C1091.82 386.629 1090.25 392.827 1090.25 399.911V496.721H1051.46Z" fill="currentColor"/>
<path d="M983.92 427.534V331.757H1022.71V496.747H985.1V467.379H983.33C979.593 476.627 973.497 484.203 965.041 490.106C956.584 496.009 946.161 498.911 933.772 498.813C922.956 498.813 913.418 496.451 905.158 491.729C896.997 486.908 890.556 479.874 885.837 470.626C881.215 461.279 878.904 450.014 878.904 436.831V331.757H917.695V430.928C917.695 441.258 920.547 449.522 926.25 455.721C932.051 461.919 939.623 464.969 948.964 464.87C954.667 464.87 960.173 463.493 965.483 460.738C970.891 457.983 975.316 453.851 978.758 448.342C982.199 442.832 983.92 435.896 983.92 427.534ZM918.728 307.555C913.123 307.653 908.256 305.686 904.126 301.652C899.996 297.618 897.931 292.896 897.931 287.485C897.931 281.68 899.996 276.859 904.126 273.022C908.256 269.087 913.123 267.119 918.728 267.119C924.529 267.119 929.396 269.087 933.329 273.022C937.263 276.859 939.229 281.68 939.229 287.485C939.229 292.896 937.263 297.618 933.329 301.652C929.396 305.686 924.529 307.653 918.728 307.555ZM983.035 307.555C977.43 307.653 972.563 305.686 968.433 301.652C964.303 297.618 962.238 292.896 962.238 287.485C962.238 281.68 964.303 276.859 968.433 273.022C972.563 269.087 977.43 267.119 983.035 267.119C988.836 267.119 993.704 269.087 997.637 273.022C1001.67 276.859 1003.63 281.68 1003.54 287.485C1003.63 292.896 1001.67 297.618 997.637 301.652C993.704 305.686 988.836 307.653 983.035 307.555Z" fill="currentColor"/>
<path d="M690.539 496.745V471.952L803.224 310.209H689.949V276.857H852.782V301.798L740.097 463.393H853.372V496.745H690.539Z" fill="currentColor"/>
<path d="M1499.4 2.94336V222.831H1459.58V2.94336H1499.4Z" fill="currentColor"/>
<path d="M1280.52 222.831H1237.9L1315.48 2.94336H1364.45L1441.88 222.831H1399.4L1340.7 48.1015H1338.93L1280.52 222.831ZM1282 136.647H1397.78V168.523H1282V136.647Z" fill="currentColor"/>
<path d="M1115.91 126.334V222.848H1077.12V57.859H1115.17V86.0459H1117.09C1120.83 76.7979 1126.68 69.4683 1134.64 64.0572C1142.7 58.5477 1152.93 55.793 1165.32 55.793C1176.73 55.793 1186.66 58.2034 1195.11 63.0242C1203.57 67.845 1210.11 74.9286 1214.73 84.275C1219.45 93.5231 1221.81 104.739 1221.81 117.922V222.848H1183.02V123.973C1183.02 112.954 1180.17 104.345 1174.46 98.1471C1168.76 91.8506 1160.9 88.7023 1150.87 88.7023C1144.08 88.7023 1138.03 90.1781 1132.72 93.1296C1127.51 96.0811 1123.38 100.361 1120.33 105.969C1117.38 111.478 1115.91 118.267 1115.91 126.334Z" fill="currentColor"/>
<path d="M982.884 226.095C966.365 226.095 952.107 222.652 940.111 215.765C928.115 208.78 918.872 198.941 912.382 186.25C905.991 173.558 902.795 158.604 902.795 141.387C902.795 124.366 905.991 109.461 912.382 96.6714C918.773 83.7831 927.771 73.748 939.373 66.566C950.976 59.384 964.644 55.793 980.377 55.793C990.505 55.793 1000.09 57.4163 1009.14 60.663C1018.28 63.9096 1026.35 68.9272 1033.33 75.7157C1040.41 82.5041 1045.96 91.1619 1049.99 101.689C1054.03 112.118 1056.04 124.563 1056.04 139.026V151.127H920.937V125.006H1036.72L1018.58 132.68C1018.58 123.333 1017.15 115.217 1014.3 108.33C1011.45 101.345 1007.22 95.8843 1001.62 91.949C996.011 88.0136 989.03 86.0459 980.672 86.0459C972.314 86.0459 965.185 88.0136 959.285 91.949C953.385 95.8843 948.911 101.197 945.863 107.887C942.815 114.479 941.291 121.858 941.291 130.023V148.175C941.291 158.21 943.012 166.819 946.453 174.001C949.993 181.085 954.909 186.496 961.202 190.234C967.594 193.973 975.018 195.842 983.474 195.842C988.98 195.842 993.995 195.055 998.518 193.481C1003.14 191.907 1007.07 189.546 1010.32 186.397C1013.66 183.151 1016.22 179.166 1017.99 174.444L1054.27 178.723C1051.91 188.267 1047.54 196.629 1041.14 203.811C1034.85 210.895 1026.74 216.404 1016.81 220.34C1006.97 224.177 995.667 226.095 982.884 226.095Z" fill="currentColor"/>
<path d="M790.982 225.791C770.824 225.791 753.076 221.216 737.736 212.066C722.495 202.916 710.598 189.93 702.043 173.106C693.488 156.282 689.211 136.311 689.211 113.19C689.211 89.5783 693.587 69.3113 702.338 52.3893C711.188 35.4673 723.184 22.5299 738.326 13.5769C753.469 4.52565 770.627 0 789.802 0C801.994 0 813.302 1.77091 823.725 5.31272C834.246 8.85453 843.588 13.9213 851.749 20.513C859.91 27.0063 866.597 34.7294 871.808 43.6823C877.118 52.6353 880.658 62.4736 882.428 73.1974H841.867C840.097 67.3928 837.639 62.1785 834.492 57.5544C831.444 52.9304 827.708 48.9951 823.283 45.7484C818.956 42.4034 814.04 39.8946 808.533 38.2221C803.027 36.5495 796.931 35.7133 790.244 35.7133C778.543 35.7133 768.071 38.714 758.828 44.7154C749.585 50.6184 742.309 59.3254 736.999 70.8362C731.787 82.2487 729.182 96.2192 729.182 112.748C729.182 129.375 731.787 143.443 736.999 154.954C742.21 166.465 749.487 175.221 758.828 181.223C768.169 187.126 778.985 190.077 791.277 190.077C802.388 190.077 812.024 187.962 820.185 183.731C828.347 179.403 834.64 173.303 839.065 165.432C843.489 157.561 845.702 148.264 845.702 137.54L854.846 139.016H795.111V107.878H884.345V134.146C884.345 153.036 880.363 169.318 872.398 182.994C864.433 196.669 853.371 207.245 839.212 214.722C825.151 222.101 809.074 225.791 790.982 225.791Z" fill="currentColor"/>
<path d="M388.786 108.266C388.786 89.1714 383.127 70.5057 372.524 54.6293C361.922 38.7529 346.852 26.3787 329.221 19.0716C311.59 11.7644 292.189 9.85257 273.472 13.5777C254.755 17.3028 237.562 26.4977 224.068 39.9995C210.573 53.5013 201.384 70.7036 197.661 89.4311C193.938 108.159 195.848 127.57 203.151 145.211C210.455 162.852 222.822 177.93 238.69 188.538C254.557 199.147 273.212 204.809 292.296 204.809L292.296 108.266H388.786Z" fill="#F7D44F"/>
<path d="M0.722656 11.7227H194.751L195.013 108.79H98.2611L97.7367 205.858H194.751H0.722656V11.7227Z" fill="#8159D5"/>
<path d="M292.283 205.863H583.85V302.406H487.36V402.098L583.85 401.573V497.591H292.283V402.098H390.346V302.406L292.283 303.193V205.863Z" fill="#50E75F"/>
<path d="M389.828 11.7227H483.856C539.085 11.7227 583.856 56.4942 583.856 111.723V205.781H486.318V108.528V108.79L389.828 108.528V11.7227Z" fill="#556FF8"/>
<path d="M292.297 205.871V497.599H194.759V371.149L68.9025 497.599L0.730469 427.291L125.013 302.939H0.730469V205.871H292.297Z" fill="#FB512E"/>
</svg>
